<?xml version="1.0" encoding="UTF-8"?>
<svg width="48" height="48" viewBox="0 0 48 48" fill="none" xmlns="http://www.w3.org/2000/svg">
  <circle cx="24" cy="24" r="22" fill="#4285F4"/>
  <path d="M35.7 25.8c0-.6 0-1.2-.1-1.8l3.2-2.3c.3-.2.4-.6.2-.9l-3-5.2c-.2-.3-.6-.4-.9-.3l-3.7 1.5c-.9-.7-1.9-1.2-3-1.6l-.5-3.9c-.1-.4-.4-.6-.8-.6h-6c-.4 0-.7.2-.8.6l-.5 3.9c-1.1.4-2.1.9-3 1.6l-3.7-1.5c-.3-.1-.7 0-.9.3l-3 5.2c-.2.3-.1.7.2.9l3.2 2.3c-.1.6-.1 1.2-.1 1.8s0 1.2.1 1.8L9.3 30c-.3.2-.4.6-.2.9l3 5.2c.2.3.6.4.9.3l3.7-1.5c.9.7 1.9 1.2 3 1.6l.5 3.9c.1.4.4.6.8.6h6c.4 0 .7-.2.8-.6l.5-3.9c1.1-.4 2.1-.9 3-1.6l3.7 1.5c.3.1.7 0 .9-.3l3-5.2c.2-.3.1-.7-.2-.9l-3.2-2.3c.1-.6.1-1.2.1-1.8zm-11.7 5c-2.8 0-5-2.2-5-5s2.2-5 5-5 5 2.2 5 5-2.2 5-5 5z" fill="white"/>
</svg> 